<?xml version="1.0" encoding="utf-8"?>
<!-- Generator: Adobe Illustrator 21.0.0, SVG Export Plug-In . SVG Version: 6.00 Build 0)  -->
<svg version="1.1" id="Layer_1" xmlns="http://www.w3.org/2000/svg" xmlns:xlink="http://www.w3.org/1999/xlink" x="0px" y="0px"
	 viewBox="0 0 27.2 27.2" style="enable-background:new 0 0 27.2 27.2;" xml:space="preserve">
<style type="text/css">
	.st0{fill:none;}
	.st1{fill:#010101;}
	.st2{fill:none;stroke:#000000;stroke-width:1.5;stroke-linejoin:bevel;stroke-miterlimit:10;}
</style>
<line class="st0" x1="10.2" y1="27.2" x2="12.6" y2="27.2"/>
<path class="st0" d="M4.8,27.1c0.4,0.1,0.8,0.1,1.1,0.1H6"/>
<line class="st0" x1="0" y1="18.3" x2="0" y2="19.8"/>
<line class="st0" x1="0" y1="16.5" x2="0" y2="17.9"/>
<g>
	<path class="st1" d="M21.3,1.5c2.4,0,4.4,2,4.4,4.4v15.3c0,2.4-2,4.4-4.4,4.4H5.9c-0.3,0-0.5,0-0.8-0.1H4.9l0,0
		c-2-0.5-3.4-2.3-3.4-4.3V5.9c0-2.4,2-4.4,4.4-4.4H21.3 M21.3,0H5.9C2.7,0,0,2.7,0,5.9v15.3c0,2.9,2,5.3,4.7,5.8l0,0
		c0.4,0.1,0.8,0.1,1.1,0.1h15.3c3.3,0,5.9-2.7,5.9-5.9V5.9C27.2,2.7,24.6,0,21.3,0L21.3,0z"/>
</g>
<line class="st2" x1="5.9" y1="21.2" x2="11" y2="16.1"/>
<polyline class="st2" points="11,21.2 5.9,21.2 5.9,16.1 "/>
<circle class="st2" cx="16.7" cy="10.4" r="5.7"/>
</svg>
