<?xml version="1.0" encoding="utf-8"?>
<!-- Generator: Adobe Illustrator 21.0.2, SVG Export Plug-In . SVG Version: 6.00 Build 0)  -->
<svg version="1.1" id="Layer_1" xmlns="http://www.w3.org/2000/svg" xmlns:xlink="http://www.w3.org/1999/xlink" x="0px" y="0px"
	 viewBox="0 0 27.2 27.2" style="enable-background:new 0 0 27.2 27.2;" xml:space="preserve">
<style type="text/css">
	.st0{fill:none;stroke:#010101;stroke-width:1.5;stroke-miterlimit:10;}
	.st1{fill:#010101;}
	.st2{fill:#00FFFF;}
	.st3{fill:none;stroke:#00FFFF;stroke-width:1.4;stroke-miterlimit:10;}
</style>
<path class="st0" d="M19,6v4.4H8.2V7.6c1.3,0,2.5-0.6,3.3-1.6H19z"/>
<rect x="12.6" y="10.4" class="st0" width="2.9" height="10.8"/>
<g>
	<path class="st1" d="M21.3,1.5c2.4,0,4.4,2,4.4,4.4v15.3c0,2.4-2,4.4-4.4,4.4H5.9c-2.4,0-4.4-2-4.4-4.4V5.9c0-2.4,2-4.4,4.4-4.4
		H21.3 M21.3,0H5.9C2.7,0,0,2.7,0,5.9v15.3c0,3.3,2.7,5.9,5.9,5.9h15.3c3.3,0,5.9-2.7,5.9-5.9V5.9C27.2,2.7,24.6,0,21.3,0L21.3,0z"
		/>
</g>
<g>
	<path class="st2" d="M63.9-1.4H48.5c-3.2,0-5.9,2.7-5.9,5.9v15.3c0,3.3,2.7,5.9,5.9,5.9h15.3c3.3,0,5.9-2.7,5.9-5.9V4.5
		C69.8,1.3,67.2-1.4,63.9-1.4z M68.3,19.8c0,2.4-2,4.4-4.4,4.4H48.5c-2.4,0-4.4-2-4.4-4.4V4.5c0-2.4,2-4.4,4.4-4.4h15.4
		c2.4,0,4.4,2,4.4,4.4V19.8z"/>
</g>
<polyline class="st3" points="62.9,18 52,18 51.3,14.3 "/>
<polygon class="st3" points="64.9,7.1 63.6,14.3 51.3,14.3 50,7.1 "/>
<path class="st3" d="M63.6,14.3"/>
<circle class="st3" cx="51.6" cy="20.6" r="0.7"/>
<circle class="st3" cx="60.8" cy="20.6" r="0.7"/>
<polyline class="st3" points="51.3,14.3 49.3,3.3 47.2,3.2 "/>
</svg>
