<?xml version="1.0" encoding="utf-8"?>
<!-- Generator: Adobe Illustrator 21.0.0, SVG Export Plug-In . SVG Version: 6.00 Build 0)  -->
<svg version="1.1" id="Layer_1" xmlns="http://www.w3.org/2000/svg" xmlns:xlink="http://www.w3.org/1999/xlink" x="0px" y="0px"
	 viewBox="0 0 27.2 27.2" style="enable-background:new 0 0 27.2 27.2;" xml:space="preserve">
<style type="text/css">
	.st0{fill:#010101;}
	.st1{fill:none;stroke:#010101;stroke-width:1.5;stroke-miterlimit:10;}
</style>
<g>
	<path class="st0" d="M21.3,1.5c2.4,0,4.4,2,4.4,4.4v15.3c0,2.4-2,4.4-4.4,4.4H5.9c-2.4,0-4.4-2-4.4-4.4V5.9c0-2.4,2-4.4,4.4-4.4
		H21.3 M21.3,0H5.9C2.7,0,0,2.7,0,5.9v15.3c0,3.3,2.7,5.9,5.9,5.9h15.3c3.3,0,5.9-2.7,5.9-5.9V5.9C27.2,2.7,24.6,0,21.3,0L21.3,0z"
		/>
</g>
<path class="st1" d="M14,13.6H9.9c-1.3,0-2.3-1-2.3-2.3v-0.8c0-1.3,1-2.3,2.3-2.3H14c1.3,0,2.3,1,2.3,2.3v0.8
	C16.3,12.6,15.3,13.6,14,13.6z"/>
<path class="st1" d="M17.3,19h-4.1c-1.3,0-2.3-1-2.3-2.3v-0.8c0-1.3,1-2.3,2.3-2.3h4.1c1.3,0,2.3,1,2.3,2.3v0.8
	C19.6,18,18.5,19,17.3,19z"/>
<path class="st1" d="M7.1,15.7C5.8,15,4.9,13.6,4.9,12V9.8c0-1.7,1-3.1,2.4-3.8"/>
<path class="st1" d="M20.1,11.5c1.3,0.7,2.3,2.1,2.3,3.7v2.2c0,1.7-1,3.1-2.4,3.8"/>
</svg>
