<?xml version="1.0" encoding="utf-8"?>
<!-- Generator: Adobe Illustrator 21.1.0, SVG Export Plug-In . SVG Version: 6.00 Build 0)  -->
<svg version="1.1" id="Layer_1" xmlns="http://www.w3.org/2000/svg" xmlns:xlink="http://www.w3.org/1999/xlink" x="0px" y="0px"
	 viewBox="0 0 807.1 154.1" style="enable-background:new 0 0 807.1 154.1;" xml:space="preserve">
<style type="text/css">
	.st0{fill:#444444;}
	.st1{fill:#00FFFF;}
	.st2{font-family:'Futura-Medium';}
	.st3{font-size:30px;}
</style>
<g>
	<path class="st0" d="M166.6,70.8l25.9,35.7h-15.4l-23.9-34.2h-2.3v34.2h-12.6V22.8h14.8c11.1,0,19,2.1,24,6.2
		c5.4,4.6,8.1,10.7,8.1,18.3c0,5.9-1.7,11-5.1,15.3C176.7,66.9,172.2,69.6,166.6,70.8z M150.9,61.2h4c12,0,17.9-4.6,17.9-13.7
		c0-8.6-5.8-12.8-17.4-12.8h-4.5V61.2z"/>
	<path class="st0" d="M249.1,82.9h-37.8c0.3,4.3,1.7,7.8,4.2,10.3c2.5,2.5,5.7,3.8,9.6,3.8c3,0,5.5-0.7,7.5-2.2c2-1.4,4.2-4.1,6.7-8
		l10.3,5.7c-1.6,2.7-3.3,5-5,7c-1.8,1.9-3.7,3.5-5.7,4.8c-2,1.2-4.2,2.2-6.6,2.7c-2.3,0.6-4.9,0.9-7.6,0.9c-7.9,0-14.2-2.5-19-7.6
		c-4.8-5.1-7.2-11.8-7.2-20.3c0-8.3,2.3-15.1,6.9-20.3c4.7-5.1,10.8-7.6,18.5-7.6c7.8,0,13.9,2.5,18.4,7.4
		c4.5,4.9,6.7,11.7,6.7,20.4L249.1,82.9z M236.5,73c-1.7-6.5-5.8-9.8-12.3-9.8c-1.5,0-2.9,0.2-4.2,0.7c-1.3,0.5-2.5,1.1-3.5,2
		c-1.1,0.8-2,1.9-2.7,3.1c-0.8,1.2-1.3,2.5-1.7,4.1H236.5z"/>
	<path class="st0" d="M301.3,53.7h12.2v52.8h-12.2v-5.5c-5,4.7-10.4,7-16.2,7c-7.3,0-13.3-2.6-18.1-7.9c-4.7-5.4-7.1-12.1-7.1-20.2
		c0-7.9,2.4-14.5,7.1-19.8c4.7-5.3,10.7-7.9,17.8-7.9c6.1,0,11.7,2.5,16.5,7.6V53.7z M272.4,79.9c0,5.1,1.4,9.2,4.1,12.4
		c2.8,3.2,6.3,4.8,10.5,4.8c4.5,0,8.2-1.6,10.9-4.7c2.8-3.2,4.2-7.3,4.2-12.2c0-4.9-1.4-9-4.2-12.2c-2.8-3.1-6.4-4.7-10.8-4.7
		c-4.2,0-7.7,1.6-10.5,4.8C273.7,71.2,272.4,75.2,272.4,79.9z"/>
	<path class="st0" d="M341.1,14.9v91.5h-12.2V14.9H341.1z"/>
	<path class="st0" d="M354.7,31.7c0-2.1,0.8-4,2.3-5.5c1.6-1.6,3.4-2.3,5.6-2.3c2.2,0,4.1,0.8,5.6,2.3c1.6,1.5,2.3,3.4,2.3,5.6
		c0,2.2-0.8,4.1-2.3,5.6c-1.5,1.6-3.4,2.3-5.6,2.3c-2.2,0-4.1-0.8-5.6-2.3C355.5,35.9,354.7,34,354.7,31.7z M368.8,53.7v52.8h-12.2
		V53.7H368.8z"/>
	<path class="st0" d="M396.8,65.1v41.4h-12.2V65.1h-5.2V53.7h5.2V34.3h12.2v19.3h9.5v11.4H396.8z"/>
	<path class="st0" d="M431.2,96.7l-23.7-43h14.1L437.7,84l15.1-30.3h13.8l-42,81.5h-13.9L431.2,96.7z"/>
	<path class="st0" d="M557.6,34.7h-33.5v20.1h32.6v11.9h-32.6v28h33.5v11.9h-46.2V22.8h46.2V34.7z"/>
	<path class="st0" d="M610.8,14.9H623v91.5h-12.2v-5.5c-4.8,4.7-10.2,7-16.3,7c-7.2,0-13.2-2.6-18-7.9c-4.7-5.4-7.1-12.1-7.1-20.2
		c0-7.9,2.4-14.4,7.1-19.7c4.7-5.3,10.6-8,17.7-8c6.2,0,11.7,2.5,16.6,7.6V14.9z M581.8,79.9c0,5.1,1.4,9.2,4.1,12.4
		c2.8,3.2,6.3,4.8,10.5,4.8c4.5,0,8.2-1.6,10.9-4.7c2.8-3.2,4.2-7.3,4.2-12.2c0-4.9-1.4-9-4.2-12.2c-2.8-3.1-6.4-4.7-10.8-4.7
		c-4.2,0-7.7,1.6-10.5,4.8C583.2,71.2,581.8,75.2,581.8,79.9z"/>
	<path class="st0" d="M636.5,31.7c0-2.1,0.8-4,2.3-5.5c1.6-1.6,3.4-2.3,5.6-2.3c2.2,0,4.1,0.8,5.6,2.3c1.6,1.5,2.3,3.4,2.3,5.6
		c0,2.2-0.8,4.1-2.3,5.6c-1.5,1.6-3.4,2.3-5.6,2.3s-4.1-0.8-5.6-2.3C637.3,35.9,636.5,34,636.5,31.7z M650.6,53.7v52.8h-12.2V53.7
		H650.6z"/>
	<path class="st0" d="M678.6,65.1v41.4h-12.2V65.1h-5.2V53.7h5.2V34.3h12.2v19.3h9.5v11.4H678.6z"/>
	<path class="st0" d="M694.6,79.7c0-7.6,2.7-14.1,8.2-19.5c5.5-5.3,12.1-8,19.9-8c7.9,0,14.6,2.7,20,8.1c5.4,5.4,8.1,12,8.1,19.8
		c0,7.9-2.7,14.5-8.2,19.9c-5.5,5.3-12.2,8-20.2,8c-7.9,0-14.5-2.7-19.9-8.1C697.3,94.5,694.6,87.8,694.6,79.7z M707.1,79.9
		c0,5.3,1.4,9.4,4.2,12.5c2.9,3.1,6.7,4.7,11.4,4.7c4.8,0,8.6-1.5,11.4-4.6c2.9-3.1,4.3-7.2,4.3-12.3c0-5.1-1.4-9.2-4.3-12.3
		c-2.9-3.1-6.7-4.7-11.4-4.7c-4.7,0-8.4,1.6-11.3,4.7C708.5,71,707.1,75,707.1,79.9z"/>
	<path class="st0" d="M763.8,53.7H776v4.7c2.2-2.3,4.2-4,6-4.8c1.8-0.9,3.9-1.4,6.3-1.4c3.2,0,6.6,1,10.1,3.1l-5.6,11.2
		c-2.3-1.7-4.6-2.5-6.8-2.5c-6.6,0-10,5-10,15.1v27.4h-12.2V53.7z"/>
</g>
<path class="st1" d="M77.7,21.7H24.5c-8.7,0-15.8,7.1-15.8,15.8v53.2c0,8.7,7.1,15.8,15.8,15.8h53.2c8.7,0,15.8-7.1,15.8-15.8V37.5
	C93.5,28.8,86.4,21.7,77.7,21.7z M78.3,91.2c-7.2,7.2-16.9,11.2-27.2,11.2c-10.2,0-19.9-4-27.1-11.2C16.7,84,12.7,74.3,12.7,64.1
	c0-21.2,17.2-38.4,38.4-38.4c10.3,0,19.9,4,27.2,11.2c7.2,7.2,11.2,16.9,11.2,27.1C89.5,74.3,85.5,84,78.3,91.2z"/>
<text transform="matrix(1 0 0 1 732.057 34.3372)" class="st0 st2 st3">2.0.1</text>
</svg>
