<?xml version="1.0" encoding="utf-8"?>
<!-- Generator: Adobe Illustrator 21.0.0, SVG Export Plug-In . SVG Version: 6.00 Build 0)  -->
<svg version="1.1" id="Layer_1" xmlns="http://www.w3.org/2000/svg" xmlns:xlink="http://www.w3.org/1999/xlink" x="0px" y="0px"
	 viewBox="0 0 27.2 27.2" style="enable-background:new 0 0 27.2 27.2;" xml:space="preserve">
<style type="text/css">
	.st0{fill:#010101;}
</style>
<path class="st0" d="M13.9,22.4l-1-0.5v-8.6l0.3-0.5l7-4.3l1,0.5v8.6L20.9,18L13.9,22.4z M14.2,13.6v7.1l5.7-3.5V10L14.2,13.6z"/>
<path class="st0" d="M13.3,22.4l-7.1-4.3l-0.3-0.5V8.9l1-0.5l7.1,4.3l0.3,0.5v8.6L13.3,22.4z M7.2,17.2l5.8,3.5v-7.1L7.2,10V17.2z"
	/>
<path class="st0" d="M13.3,13.8L6.2,9.5l0-1.1l7-3.6h0.6l7,3.6l0,1.1l-7,4.3L13.3,13.8z M7.9,9l5.8,3.5L19.3,9l-5.7-2.9L7.9,9z"/>
<path class="st0" d="M13.6,22.6l-7.7-4.7V8.5l7.7-3.9l7.6,3.9v9.3L13.6,22.6z M7.2,17.2l6.4,3.9l6.3-3.9V9.3l-6.3-3.2L7.2,9.3V17.2z
	"/>
<g>
	<path class="st0" d="M21.3,1.5c2.4,0,4.4,2,4.4,4.4v15.3c0,2.4-2,4.4-4.4,4.4H5.9c-2.4,0-4.4-2-4.4-4.4V5.9c0-2.4,2-4.4,4.4-4.4
		H21.3 M21.3,0H5.9C2.7,0,0,2.7,0,5.9v15.3c0,3.3,2.7,5.9,5.9,5.9h15.3c3.3,0,5.9-2.7,5.9-5.9V5.9C27.2,2.7,24.6,0,21.3,0L21.3,0z"
		/>
</g>
</svg>
