<?xml version="1.0" encoding="utf-8"?>
<!-- Generator: Adobe Illustrator 21.0.2, SVG Export Plug-In . SVG Version: 6.00 Build 0)  -->
<svg version="1.1" id="Layer_1" xmlns="http://www.w3.org/2000/svg" xmlns:xlink="http://www.w3.org/1999/xlink" x="0px" y="0px"
	 viewBox="0 0 27.2 27.2" style="enable-background:new 0 0 27.2 27.2;" xml:space="preserve">
<g>
	<path d="M21.3,0H5.9C2.7,0,0,2.7,0,6v15.3c0,3.3,2.7,5.9,5.9,5.9h15.3c3.3,0,5.9-2.7,5.9-5.9V6C27.2,2.7,24.6,0,21.3,0z M25.7,21.2
		c0,2.4-2,4.4-4.4,4.4H5.9c-2.4,0-4.4-2-4.4-4.4V6c0-2.4,2-4.4,4.4-4.4h15.4c2.4,0,4.4,2,4.4,4.4V21.2z"/>
</g>
<path d="M21.1,15.8"/>
<path d="M14.9,21.2c-4.4,0-8-3.6-8-8s3.6-8,8-8s8,3.6,8,8S19.4,21.2,14.9,21.2z M14.9,6.6c-3.6,0-6.6,3-6.6,6.6s3,6.6,6.6,6.6
	s6.6-3,6.6-6.6S18.6,6.6,14.9,6.6z"/>
<path d="M15,23.8c-3.7,0-7.3-1.9-9.3-5.3C2.7,13.4,4.5,6.8,9.6,3.9l0.7,1.2c-4.4,2.6-6,8.3-3.4,12.7c2.6,4.4,8.2,6,12.7,3.4l0.7,1.2
	C18.6,23.4,16.8,23.8,15,23.8z"/>
</svg>
