<?xml version="1.0" encoding="utf-8"?>
<!-- Generator: Adobe Illustrator 21.0.2, SVG Export Plug-In . SVG Version: 6.00 Build 0)  -->
<svg version="1.1" id="Layer_1" xmlns="http://www.w3.org/2000/svg" xmlns:xlink="http://www.w3.org/1999/xlink" x="0px" y="0px"
	 viewBox="0 0 27.2 27.2" style="enable-background:new 0 0 27.2 27.2;" xml:space="preserve">
<style type="text/css">
	.st0{fill:#010101;}
	.st1{fill:none;stroke:#010101;stroke-width:1.4;stroke-miterlimit:10;}
</style>
<g>
	<path class="st0" d="M21.3,0H5.9C2.7,0,0,2.7,0,6v15.3c0,3.3,2.7,5.9,5.9,5.9h15.3c3.3,0,5.9-2.7,5.9-5.9V6C27.2,2.7,24.6,0,21.3,0
		z M25.7,21.2c0,2.4-2,4.4-4.4,4.4H5.9c-2.4,0-4.4-2-4.4-4.4V6c0-2.4,2-4.4,4.4-4.4h15.4c2.4,0,4.4,2,4.4,4.4V21.2z"/>
</g>
<polyline class="st1" points="20.4,19.5 9.4,19.5 8.8,15.8 "/>
<polygon class="st1" points="22.4,8.6 21,15.8 8.8,15.8 7.4,8.6 "/>
<path class="st1" d="M21.1,15.8"/>
<circle class="st1" cx="9.1" cy="22.1" r="0.7"/>
<circle class="st1" cx="18.3" cy="22.1" r="0.7"/>
<polyline class="st1" points="8.8,15.8 6.7,4.8 4.7,4.7 "/>
</svg>
