<?xml version="1.0" encoding="utf-8"?>
<!-- Generator: Adobe Illustrator 21.0.2, SVG Export Plug-In . SVG Version: 6.00 Build 0)  -->
<svg version="1.1" id="Layer_1" xmlns="http://www.w3.org/2000/svg" xmlns:xlink="http://www.w3.org/1999/xlink" x="0px" y="0px"
	 viewBox="0 0 60 320" style="enable-background:new 0 0 60 320;" xml:space="preserve">
<style type="text/css">
	.st0{fill:#00FF00;fill-opacity:0;}
	.st1{fill:#00FF00;}
</style>
<rect id="bg" class="st0" width="60" height="320"/>
<path class="st1" d="M60,320H0V0h60V320z M58.1,1.9H1.8v316.3h56.3V1.9z"/>
<g>
	<path class="st1" d="M30,149.2c1.7,0,3.1,1.4,3.1,3.1c0,1.7-1.4,3.1-3.1,3.1s-3.1-1.4-3.1-3.1C26.9,150.6,28.3,149.2,30,149.2
		L30,149.2z M30,148c-2.4,0-4.4,1.9-4.4,4.4c0,2.4,1.9,4.4,4.4,4.4c2.4,0,4.4-1.9,4.4-4.4C34.3,149.9,32.4,148,30,148L30,148z"/>
</g>
<path class="st1" d="M11.7,142v30c0,1.5,0.9,2.9,2.4,3.5l13.1,4.9c0.8,0.3,1.7,0.5,2.6,0.5s1.7-0.2,2.6-0.5l13.4-5
	c1.5-0.5,2.4-1.9,2.4-3.5v-30H11.7V142z M13.6,143.9h32.8v8c0,0.8-0.5,1.5-1.2,1.7l-13.4,5c-0.6,0.2-1.3,0.3-1.9,0.3
	c-0.7,0-1.3-0.1-2-0.4l-13.1-4.9c-0.7-0.3-1.2-1-1.2-1.7C13.6,151.9,13.6,143.9,13.6,143.9z M46.4,172c0,0.8-0.5,1.5-1.2,1.7
	l-13.4,5c-0.6,0.2-1.3,0.3-1.9,0.3c-0.7,0-1.3-0.1-2-0.4l-13.1-4.9c-0.7-0.3-1.2-1-1.2-1.7v-16.9c0.2,0.1,0.3,0.2,0.5,0.2l13.1,4.9
	c0.8,0.3,1.7,0.5,2.6,0.5s1.7-0.2,2.6-0.5l13.4-5c0.2-0.1,0.4-0.2,0.6-0.3V172z"/>
</svg>
