<?xml version="1.0" encoding="utf-8"?>
<!-- Generator: Adobe Illustrator 21.0.2, SVG Export Plug-In . SVG Version: 6.00 Build 0)  -->
<svg version="1.1" id="Layer_1" xmlns="http://www.w3.org/2000/svg" xmlns:xlink="http://www.w3.org/1999/xlink" x="0px" y="0px"
	 viewBox="0 0 60 60" style="enable-background:new 0 0 60 60;" xml:space="preserve">
<style type="text/css">
	.st0{fill:#01FFFD;}
	.st1{fill:#01FFFD;fill-opacity:0;}
</style>
<path class="st0" d="M60,60H0V0h60V60z M58.1,1.9H1.8v56.3h56.3V1.9z"/>
<path class="st0" d="M16.5,47.5h-9v-35h8.9v35H16.5z M9.4,45.7h5.2V14.3H9.4V45.7z"/>
<path class="st0" d="M52.4,47.5h-8.9v-35h8.9V47.5z M45.4,45.7h5.2V14.3h-5.2V45.7z"/>
<path class="st0" d="M40.8,22.7l-10.4-5.3l0,0L30,17.2l-0.4,0.2l-1.4,0.7l-9.5,4.8v13.8l0.4,0.3l1.9,1l9.1,5.5l0.5-0.3l10.3-6.3
	l0.4-0.3V22.9L40.8,22.7z M30,19.3l8.4,4.3h0.1l0,0l-8.4,5.2l0,0H30l-8.5-5.1l0,0L30,19.3z M20.6,35.6V25.1l8.5,5.2h0.1v10.5h-0.1
	l0,0L20.6,35.6z M39.4,35.6L31,40.8l0,0h-0.1V30.3H31l8.4-5.2V35.6z"/>
<rect id="bg" class="st1" width="60" height="60"/>
</svg>
