<?xml version="1.0" encoding="utf-8"?>
<!-- Generator: Adobe Illustrator 21.1.0, SVG Export Plug-In . SVG Version: 6.00 Build 0)  -->
<svg version="1.1" id="Layer_1" xmlns="http://www.w3.org/2000/svg" xmlns:xlink="http://www.w3.org/1999/xlink" x="0px" y="0px"
	 viewBox="0 0 60 60" style="enable-background:new 0 0 60 60;" xml:space="preserve">
<style type="text/css">
	.st0{fill:#01FFFD;}
	.st1{fill:#01FFFD;fill-opacity:0;}
</style>
<path class="st0" d="M60,60H0V0h60V60z M58.1,1.9H1.8v56.3h56.3V1.9z"/>
<rect id="bg" y="0" class="st1" width="60" height="60"/>
<g>
	<path class="st0" d="M35.3,53H24V41.9h11.3V53z M26,51h7.3v-7.1H26V51z M34.8,40.3h-10v-3.7c0.1-1.9,0.5-3.4,1.1-4.7
		c0.6-1.2,1.2-2.3,2-3.2c0.8-0.9,1.6-1.6,2.4-2.2c0.8-0.6,1.5-1.2,2.1-1.7c0.6-0.5,1.1-1.1,1.4-1.7c0.3-0.5,0.5-1.3,0.4-2.1
		c0-1.6-0.3-2.7-1-3.3c-0.7-0.7-1.7-1-3-1c-0.9,0-1.7,0.2-2.3,0.5c-0.6,0.3-1.2,0.8-1.6,1.4c-0.4,0.6-0.7,1.3-0.9,2.1
		c-0.2,0.8-0.3,1.8-0.3,2.7v1H14.4l0-1c0-2.2,0.4-4.3,1.2-6.2l0,0c0.7-1.9,1.8-3.6,3.1-4.9c1.3-1.4,3-2.5,4.8-3.3
		c1.9-0.8,4-1.2,6.3-1.2c2.9,0,5.4,0.4,7.4,1.2c2,0.8,3.6,1.9,4.9,3.1c1.2,1.2,2.1,2.6,2.7,4.1c0.5,1.4,0.8,2.8,0.8,4.1
		c0,2-0.3,3.7-0.8,5.1c-0.5,1.3-1.2,2.5-2,3.4c-0.8,0.9-1.7,1.7-2.6,2.4c-0.9,0.6-1.7,1.2-2.5,1.8c-0.7,0.6-1.4,1.2-1.9,1.9
		c-0.5,0.6-0.8,1.4-0.9,2.4V40.3z M26.8,38.3h6l0-1.4c0.2-1.4,0.6-2.5,1.4-3.4c0.7-0.9,1.4-1.6,2.3-2.3c0.8-0.6,1.6-1.2,2.6-1.9
		c0.8-0.6,1.6-1.2,2.2-2c0.7-0.8,1.2-1.7,1.7-2.9c0.4-1.1,0.7-2.5,0.7-4.3c0-1-0.2-2.1-0.7-3.4c-0.4-1.2-1.2-2.3-2.2-3.3
		c-1-1-2.5-1.9-4.2-2.7c-1.7-0.7-4-1.1-6.6-1.1c-2,0-3.9,0.3-5.5,1c-1.6,0.7-3,1.6-4.2,2.8c-1.1,1.2-2.1,2.6-2.7,4.3v0
		c-0.5,1.4-0.9,2.9-1,4.5h6.7c0.1-0.8,0.2-1.5,0.4-2.2c0.3-1,0.7-2,1.3-2.8c0.6-0.8,1.3-1.5,2.2-2c0.9-0.5,2-0.7,3.2-0.7
		c1.8,0,3.3,0.5,4.4,1.6c1.1,1.1,1.6,2.7,1.6,4.7c0,1.2-0.2,2.3-0.7,3.2c-0.5,0.8-1.1,1.5-1.8,2.2c-0.7,0.6-1.4,1.2-2.3,1.8
		c-0.7,0.5-1.4,1.2-2.1,2c-0.6,0.7-1.2,1.6-1.7,2.7c-0.5,1-0.8,2.3-0.9,3.9L26.8,38.3z M16.5,17.5L16.5,17.5L16.5,17.5z"/>
</g>
</svg>
