<?xml version="1.0" encoding="utf-8"?>
<!-- Generator: Adobe Illustrator 21.0.2, SVG Export Plug-In . SVG Version: 6.00 Build 0)  -->
<svg version="1.1" id="Layer_1" xmlns="http://www.w3.org/2000/svg" xmlns:xlink="http://www.w3.org/1999/xlink" x="0px" y="0px"
	 viewBox="0 0 60 60" style="enable-background:new 0 0 60 60;" xml:space="preserve">
<style type="text/css">
	.st0{fill:#01FFFD;}
	.st1{fill:#01FFFD;fill-opacity:0;}
</style>
<g>
	<g>
		<path class="st0" d="M35,47.4c-1.8,0.5-3.6,0.8-5.4,0.8c-7.8,0-15.1-5.1-17.5-12.9c-2.7-8.8,1.6-18.2,9.9-22l0.8,1.7
			c-7.5,3.4-11.3,11.9-8.8,19.7c2.6,8.6,11.8,13.5,20.5,10.8C43.1,43,48,33.8,45.3,25.1c-1.6-5.2-5.7-9.2-10.8-10.8L34.3,18l-8-5
			l8.4-4.4l-0.1,3.8c6,1.7,10.7,6.3,12.6,12.2C50.1,34.2,44.7,44.5,35,47.4z"/>
	</g>
</g>
<rect x="28.6" y="19.6" class="st0" width="1.9" height="17"/>
<rect x="28.6" y="38.7" class="st0" width="1.9" height="2.5"/>
<path class="st0" d="M60,60H0V0h60V60z M58.1,1.9H1.9v56.3h56.3V1.9H58.1z"/>
<rect id="bg" class="st1" width="60" height="60"/>
</svg>
