<?xml version="1.0" encoding="utf-8"?>
<!-- Generator: Adobe Illustrator 21.0.2, SVG Export Plug-In . SVG Version: 6.00 Build 0)  -->
<svg version="1.1" id="Layer_1" xmlns="http://www.w3.org/2000/svg" xmlns:xlink="http://www.w3.org/1999/xlink" x="0px" y="0px"
	 viewBox="0 0 60 60" style="enable-background:new 0 0 60 60;" xml:space="preserve">
<style type="text/css">
	.st0{fill:#01FFFD;}
	.st1{fill:#01FFFD;fill-opacity:0;}
</style>
<path class="st0" d="M38.7,34.8L38.7,34.8l-8.3,5.1l0,0l0,0l0,0L38.7,34.8L38.7,34.8L38.7,34.8z M29.4,52L29.4,52l0.1-10.4h-0.1V52z
	"/>
<path class="st0" d="M31.3,41.6V52h0.1L31.3,41.6L31.3,41.6z M21.9,34.8L21.9,34.8l8.4,5.1l0,0l0,0l0,0L21.9,34.8z M29.4,52L29.4,52
	l-8.5-5.2L29.4,52z"/>
<path class="st0" d="M33.2,29.9l7.9,4l0,0L33.2,29.9z M31.3,41.6L31.3,41.6L31.3,41.6l8.4-5.1v-0.1L31.3,41.6L31.3,41.6z M21.9,34.8
	l8.4-4.2L21.9,34.8L21.9,34.8z M20.9,36.4L20.9,36.4l8.5,5.2h0.1l0,0h-0.1L20.9,36.4z"/>
<path class="st0" d="M29.9,26.6l-16.3-9.9l0.1-1.7l16.2-8.2h0.9L46.9,15l0.1,1.7l-16.1,9.9H29.9z M16.1,16l14.3,8.7L44.6,16
	L30.3,8.8L16.1,16z"/>
<path class="st0" d="M38.7,34.8l-8.4-4.2L38.7,34.8L38.7,34.8L38.7,34.8L38.7,34.8z"/>
<path class="st0" d="M41.1,33.9l-7.9-4l-2.4-1.2l-0.4-0.2L30,28.7l-11,5.4v13.8l0.5,0.3l0.8,0.5l10.1,6.2l0.5-0.3l10.3-6.3l0.5-0.3
	V34.1L41.1,33.9z M30.3,30.5L30.3,30.5l8.4,4.2l0,0l0,0L30.4,40l0,0l0,0L22,34.9l0,0l0,0L30.3,30.5z M20.9,36.4l8.5,5.1h0.1V52h-0.1
	l0,0l-8.5-5.2V36.4z M39.7,46.9L31.3,52l0,0h-0.1V41.6h0.1l8.3-5.1v10.4H39.7z"/>
<path class="st0" d="M60,60H0V0h60V60z M58.1,1.9H1.9v56.3h56.3V1.9H58.1z"/>
<rect id="bg" class="st1" width="60" height="60"/>
</svg>
